<svg width="21" height="20" viewBox="0 0 21 20" fill="none" xmlns="http://www.w3.org/2000/svg">
<path fill-rule="evenodd" clip-rule="evenodd" d="M14.0641 4.99967C14.681 4.99967 15.2196 4.66451 15.5078 4.16634H17.3975C17.8577 4.16634 18.2308 4.53944 18.2308 4.99967V6.77136C16.7931 7.14139 15.7308 8.44651 15.7308 9.99967C15.7308 11.5528 16.7931 12.8579 18.2308 13.228V14.9997C18.2308 15.4599 17.8577 15.833 17.3975 15.833H15.5078C15.2196 15.3348 14.681 14.9997 14.0641 14.9997C13.4472 14.9997 12.9086 15.3348 12.6205 15.833H4.06413C3.60389 15.833 3.23079 15.4599 3.23079 14.9997V13.228C4.66849 12.8579 5.73079 11.5528 5.73079 9.99967C5.73079 8.44651 4.66849 7.14139 3.23079 6.77136V4.99967C3.23079 4.53944 3.60389 4.16634 4.06413 4.16634H12.6205C12.9086 4.66451 13.4472 4.99967 14.0641 4.99967ZM16.5641 9.99967C16.5641 8.61892 17.6834 7.49967 19.0641 7.49967V4.99967C19.0641 4.0792 18.318 3.33301 17.3975 3.33301H14.8975C14.8975 3.79324 14.5244 4.16634 14.0641 4.16634C13.6039 4.16634 13.2308 3.79324 13.2308 3.33301H4.06413C3.14365 3.33301 2.39746 4.0792 2.39746 4.99967V7.49967C3.77817 7.49967 4.89746 8.61892 4.89746 9.99967C4.89746 11.3804 3.77817 12.4997 2.39746 12.4997V14.9997C2.39746 15.9202 3.14365 16.6663 4.06413 16.6663H13.2308C13.2308 16.2061 13.6039 15.833 14.0641 15.833C14.5244 15.833 14.8975 16.2061 14.8975 16.6663H17.3975C18.318 16.6663 19.0641 15.9202 19.0641 14.9997V12.4997C17.6834 12.4997 16.5641 11.3804 16.5641 9.99967ZM14.0641 7.49967C14.5244 7.49967 14.8975 7.12658 14.8975 6.66634C14.8975 6.20611 14.5244 5.83301 14.0641 5.83301C13.6039 5.83301 13.2308 6.20611 13.2308 6.66634C13.2308 7.12658 13.6039 7.49967 14.0641 7.49967ZM14.0641 10.833C14.5244 10.833 14.8975 10.4599 14.8975 9.99967C14.8975 9.53942 14.5244 9.16634 14.0641 9.16634C13.6039 9.16634 13.2308 9.53942 13.2308 9.99967C13.2308 10.4599 13.6039 10.833 14.0641 10.833ZM14.8975 13.333C14.8975 13.7933 14.5244 14.1663 14.0641 14.1663C13.6039 14.1663 13.2308 13.7933 13.2308 13.333C13.2308 12.8728 13.6039 12.4997 14.0641 12.4997C14.5244 12.4997 14.8975 12.8728 14.8975 13.333Z" fill="#707070"/>
</svg>
