<svg width="27" height="27" viewBox="0 0 27 27" fill="none" xmlns="http://www.w3.org/2000/svg">
<g clip-path="url(#clip0_4_7857)">
<g clip-path="url(#clip1_4_7857)">
<path d="M11.0564 1.31543C16.4238 1.31543 20.7749 5.66656 20.7749 11.0339C20.7749 13.1323 20.1099 15.0753 18.9792 16.6637L26.3051 23.992L24.0145 26.2826L16.6861 18.9568C15.0977 20.0875 13.1547 20.7524 11.0564 20.7524C5.68902 20.7524 1.33789 16.4013 1.33789 11.0339C1.33789 5.66656 5.68902 1.31543 11.0564 1.31543ZM11.0564 4.55494C7.47816 4.55494 4.5774 7.45569 4.5774 11.0339C4.5774 14.6122 7.47816 17.513 11.0564 17.513C14.6347 17.513 17.5354 14.6122 17.5354 11.0339C17.5354 7.45569 14.6347 4.55494 11.0564 4.55494Z" fill="#008294"/>
</g>
</g>
<defs>
<clipPath id="clip0_4_7857">
<rect width="25.5111" height="25.5111" fill="white" transform="translate(0.933594 0.911133)"/>
</clipPath>
<clipPath id="clip1_4_7857">
<rect width="25.5111" height="25.5111" fill="white" transform="translate(0.933594 0.911133)"/>
</clipPath>
</defs>
</svg>
